<mxfile host="app.diagrams.net" modified="2022-04-04T11:58:16.939Z" agent="5.0 (Macintosh; Intel Mac OS X 10_15_7) AppleWebKit/605.1.15 (KHTML, like Gecko) Version/15.3 Safari/605.1.15" etag="pXdqD3qmH6H27bRujsog" version="17.4.0" type="github">
  <diagram id="Bs-IRYPDhbyPMLY3h52Y" name="Page-1">
    <mxGraphModel dx="826" dy="433" grid="1" gridSize="10" guides="1" tooltips="1" connect="1" arrows="1" fold="1" page="1" pageScale="1" pageWidth="827" pageHeight="1169" math="0" shadow="0">
      <root>
        <mxCell id="0" />
        <mxCell id="1" parent="0" />
        <mxCell id="wm6ZoheksM0Se62p-lOR-1" value="" style="shape=image;verticalLabelPosition=bottom;labelBackgroundColor=default;verticalAlign=top;aspect=fixed;imageAspect=0;image=https://portables360.com/wp-content/uploads/2019/04/airflow-in-reefer-containers.png;" vertex="1" parent="1">
          <mxGeometry x="219.87" y="390" width="510.25" height="260" as="geometry" />
        </mxCell>
        <mxCell id="wm6ZoheksM0Se62p-lOR-2" value="" style="rounded=0;whiteSpace=wrap;html=1;" vertex="1" parent="1">
          <mxGeometry x="140" y="50" width="470" height="110" as="geometry" />
        </mxCell>
        <mxCell id="wm6ZoheksM0Se62p-lOR-3" value="" style="rounded=0;whiteSpace=wrap;html=1;" vertex="1" parent="1">
          <mxGeometry x="180" y="60" width="420" height="90" as="geometry" />
        </mxCell>
        <mxCell id="wm6ZoheksM0Se62p-lOR-4" value="" style="rounded=0;whiteSpace=wrap;html=1;" vertex="1" parent="1">
          <mxGeometry x="150" y="60" width="30" height="90" as="geometry" />
        </mxCell>
        <mxCell id="wm6ZoheksM0Se62p-lOR-5" value="" style="ellipse;whiteSpace=wrap;html=1;" vertex="1" parent="1">
          <mxGeometry x="170" y="160" width="30" height="30" as="geometry" />
        </mxCell>
        <mxCell id="wm6ZoheksM0Se62p-lOR-6" value="" style="ellipse;whiteSpace=wrap;html=1;" vertex="1" parent="1">
          <mxGeometry x="200" y="160" width="30" height="30" as="geometry" />
        </mxCell>
        <mxCell id="wm6ZoheksM0Se62p-lOR-7" value="" style="rounded=0;whiteSpace=wrap;html=1;" vertex="1" parent="1">
          <mxGeometry x="570" y="160" width="10" height="20" as="geometry" />
        </mxCell>
        <mxCell id="wm6ZoheksM0Se62p-lOR-8" value="" style="rounded=0;whiteSpace=wrap;html=1;strokeColor=none;" vertex="1" parent="1">
          <mxGeometry x="165" y="61" width="30" height="10" as="geometry" />
        </mxCell>
        <mxCell id="wm6ZoheksM0Se62p-lOR-9" value="" style="rounded=0;whiteSpace=wrap;html=1;strokeColor=none;" vertex="1" parent="1">
          <mxGeometry x="165" y="139" width="30" height="10" as="geometry" />
        </mxCell>
        <mxCell id="wm6ZoheksM0Se62p-lOR-15" value="" style="group" vertex="1" connectable="0" parent="1">
          <mxGeometry x="174" y="61" width="8.05" height="10" as="geometry" />
        </mxCell>
        <mxCell id="wm6ZoheksM0Se62p-lOR-11" value="" style="ellipse;whiteSpace=wrap;html=1;" vertex="1" parent="wm6ZoheksM0Se62p-lOR-15">
          <mxGeometry x="1.1889553004586597" y="0.21391943476048103" width="5.837845795372881" height="9.78608056523952" as="geometry" />
        </mxCell>
        <mxCell id="wm6ZoheksM0Se62p-lOR-12" value="" style="ellipse;whiteSpace=wrap;html=1;rotation=40;" vertex="1" parent="wm6ZoheksM0Se62p-lOR-15">
          <mxGeometry x="5.080852497373914" y="0.21391943476048103" width="1.945948598457627" height="4.89304028261976" as="geometry" />
        </mxCell>
        <mxCell id="wm6ZoheksM0Se62p-lOR-13" value="" style="ellipse;whiteSpace=wrap;html=1;rotation=-180;" vertex="1" parent="wm6ZoheksM0Se62p-lOR-15">
          <mxGeometry x="3.1349038989162867" y="5.10695971738024" width="1.945948598457627" height="4.89304028261976" as="geometry" />
        </mxCell>
        <mxCell id="wm6ZoheksM0Se62p-lOR-14" value="" style="ellipse;whiteSpace=wrap;html=1;rotation=-57;" vertex="1" parent="wm6ZoheksM0Se62p-lOR-15">
          <mxGeometry x="1.1889553004586597" y="0.21391943476048103" width="1.945948598457627" height="4.89304028261976" as="geometry" />
        </mxCell>
        <mxCell id="wm6ZoheksM0Se62p-lOR-20" value="" style="endArrow=classic;html=1;rounded=0;fillColor=#1ba1e2;strokeColor=#006EAF;endSize=3;" edge="1" parent="1">
          <mxGeometry width="50" height="50" relative="1" as="geometry">
            <mxPoint x="195" y="65.86000000000001" as="sourcePoint" />
            <mxPoint x="220" y="66" as="targetPoint" />
          </mxGeometry>
        </mxCell>
        <mxCell id="wm6ZoheksM0Se62p-lOR-21" value="" style="endArrow=classic;html=1;rounded=0;fillColor=#1ba1e2;strokeColor=#006EAF;endSize=3;" edge="1" parent="1">
          <mxGeometry width="50" height="50" relative="1" as="geometry">
            <mxPoint x="260" y="65.86000000000001" as="sourcePoint" />
            <mxPoint x="285" y="66" as="targetPoint" />
          </mxGeometry>
        </mxCell>
        <mxCell id="wm6ZoheksM0Se62p-lOR-22" value="" style="endArrow=classic;html=1;rounded=0;fillColor=#1ba1e2;strokeColor=#006EAF;endSize=3;" edge="1" parent="1">
          <mxGeometry width="50" height="50" relative="1" as="geometry">
            <mxPoint x="314" y="65.86000000000001" as="sourcePoint" />
            <mxPoint x="339" y="66" as="targetPoint" />
          </mxGeometry>
        </mxCell>
        <mxCell id="wm6ZoheksM0Se62p-lOR-23" value="" style="endArrow=classic;html=1;rounded=0;fillColor=#1ba1e2;strokeColor=#006EAF;endSize=3;" edge="1" parent="1">
          <mxGeometry width="50" height="50" relative="1" as="geometry">
            <mxPoint x="377.5" y="65.86000000000001" as="sourcePoint" />
            <mxPoint x="402.5" y="66" as="targetPoint" />
          </mxGeometry>
        </mxCell>
        <mxCell id="wm6ZoheksM0Se62p-lOR-24" value="" style="endArrow=classic;html=1;rounded=0;fillColor=#1ba1e2;strokeColor=#006EAF;endSize=3;" edge="1" parent="1">
          <mxGeometry width="50" height="50" relative="1" as="geometry">
            <mxPoint x="430" y="65.86000000000001" as="sourcePoint" />
            <mxPoint x="455" y="66" as="targetPoint" />
          </mxGeometry>
        </mxCell>
        <mxCell id="wm6ZoheksM0Se62p-lOR-25" value="" style="endArrow=classic;html=1;rounded=0;fillColor=#1ba1e2;strokeColor=#006EAF;endSize=3;" edge="1" parent="1">
          <mxGeometry width="50" height="50" relative="1" as="geometry">
            <mxPoint x="480" y="65.86000000000001" as="sourcePoint" />
            <mxPoint x="505" y="66" as="targetPoint" />
          </mxGeometry>
        </mxCell>
        <mxCell id="wm6ZoheksM0Se62p-lOR-26" value="" style="endArrow=classic;html=1;rounded=0;fillColor=#1ba1e2;strokeColor=#006EAF;endSize=3;" edge="1" parent="1">
          <mxGeometry width="50" height="50" relative="1" as="geometry">
            <mxPoint x="530" y="65.86000000000001" as="sourcePoint" />
            <mxPoint x="555" y="66" as="targetPoint" />
          </mxGeometry>
        </mxCell>
        <mxCell id="wm6ZoheksM0Se62p-lOR-27" value="" style="endArrow=classic;html=1;rounded=0;fillColor=#1ba1e2;strokeColor=#006EAF;endSize=3;" edge="1" parent="1">
          <mxGeometry width="50" height="50" relative="1" as="geometry">
            <mxPoint x="571" y="68" as="sourcePoint" />
            <mxPoint x="588" y="80" as="targetPoint" />
          </mxGeometry>
        </mxCell>
        <mxCell id="wm6ZoheksM0Se62p-lOR-30" value="" style="endArrow=classic;html=1;rounded=0;fillColor=#1ba1e2;strokeColor=#006EAF;endSize=3;" edge="1" parent="1">
          <mxGeometry width="50" height="50" relative="1" as="geometry">
            <mxPoint x="408.5" y="71" as="sourcePoint" />
            <mxPoint x="425.5" y="83" as="targetPoint" />
          </mxGeometry>
        </mxCell>
        <mxCell id="wm6ZoheksM0Se62p-lOR-32" value="" style="endArrow=classic;html=1;rounded=0;fillColor=#1ba1e2;strokeColor=#006EAF;endSize=3;" edge="1" parent="1">
          <mxGeometry width="50" height="50" relative="1" as="geometry">
            <mxPoint x="320" y="71" as="sourcePoint" />
            <mxPoint x="337" y="83" as="targetPoint" />
          </mxGeometry>
        </mxCell>
        <mxCell id="wm6ZoheksM0Se62p-lOR-33" value="" style="endArrow=classic;html=1;rounded=0;fillColor=#1ba1e2;strokeColor=#006EAF;endSize=3;" edge="1" parent="1">
          <mxGeometry width="50" height="50" relative="1" as="geometry">
            <mxPoint x="240" y="71" as="sourcePoint" />
            <mxPoint x="257" y="83" as="targetPoint" />
          </mxGeometry>
        </mxCell>
        <mxCell id="wm6ZoheksM0Se62p-lOR-34" value="" style="endArrow=classic;html=1;rounded=0;fillColor=#ffe6cc;strokeColor=#d79b00;endSize=3;" edge="1" parent="1">
          <mxGeometry width="50" height="50" relative="1" as="geometry">
            <mxPoint x="260" y="93.5" as="sourcePoint" />
            <mxPoint x="260" y="116.5" as="targetPoint" />
          </mxGeometry>
        </mxCell>
        <mxCell id="wm6ZoheksM0Se62p-lOR-37" value="" style="endArrow=classic;html=1;rounded=0;fillColor=#ffe6cc;strokeColor=#d79b00;endSize=3;" edge="1" parent="1">
          <mxGeometry width="50" height="50" relative="1" as="geometry">
            <mxPoint x="340" y="93.5" as="sourcePoint" />
            <mxPoint x="340" y="116.5" as="targetPoint" />
          </mxGeometry>
        </mxCell>
        <mxCell id="wm6ZoheksM0Se62p-lOR-39" value="" style="endArrow=classic;html=1;rounded=0;fillColor=#ffe6cc;strokeColor=#d79b00;endSize=3;" edge="1" parent="1">
          <mxGeometry width="50" height="50" relative="1" as="geometry">
            <mxPoint x="420" y="93.5" as="sourcePoint" />
            <mxPoint x="420" y="116.5" as="targetPoint" />
          </mxGeometry>
        </mxCell>
        <mxCell id="wm6ZoheksM0Se62p-lOR-40" value="" style="endArrow=classic;html=1;rounded=0;fillColor=#1ba1e2;strokeColor=#006EAF;endSize=3;" edge="1" parent="1">
          <mxGeometry width="50" height="50" relative="1" as="geometry">
            <mxPoint x="480" y="71" as="sourcePoint" />
            <mxPoint x="497" y="83" as="targetPoint" />
          </mxGeometry>
        </mxCell>
        <mxCell id="wm6ZoheksM0Se62p-lOR-41" value="" style="endArrow=classic;html=1;rounded=0;fillColor=#ffe6cc;strokeColor=#d79b00;endSize=3;" edge="1" parent="1">
          <mxGeometry width="50" height="50" relative="1" as="geometry">
            <mxPoint x="500" y="93.5" as="sourcePoint" />
            <mxPoint x="500" y="116.5" as="targetPoint" />
          </mxGeometry>
        </mxCell>
        <mxCell id="wm6ZoheksM0Se62p-lOR-43" value="" style="endArrow=classic;html=1;rounded=0;fillColor=#ffe6cc;strokeColor=#d79b00;endSize=3;" edge="1" parent="1">
          <mxGeometry width="50" height="50" relative="1" as="geometry">
            <mxPoint x="590" y="93.5" as="sourcePoint" />
            <mxPoint x="590" y="116.5" as="targetPoint" />
          </mxGeometry>
        </mxCell>
        <mxCell id="wm6ZoheksM0Se62p-lOR-47" value="" style="group" vertex="1" connectable="0" parent="1">
          <mxGeometry x="190" y="80" width="30" height="70" as="geometry" />
        </mxCell>
        <mxCell id="wm6ZoheksM0Se62p-lOR-44" value="" style="rounded=1;whiteSpace=wrap;html=1;" vertex="1" parent="wm6ZoheksM0Se62p-lOR-47">
          <mxGeometry width="30" height="60" as="geometry" />
        </mxCell>
        <mxCell id="wm6ZoheksM0Se62p-lOR-45" value="" style="rounded=0;whiteSpace=wrap;html=1;" vertex="1" parent="wm6ZoheksM0Se62p-lOR-47">
          <mxGeometry y="60" width="10" height="10" as="geometry" />
        </mxCell>
        <mxCell id="wm6ZoheksM0Se62p-lOR-46" value="" style="rounded=0;whiteSpace=wrap;html=1;" vertex="1" parent="wm6ZoheksM0Se62p-lOR-47">
          <mxGeometry x="20" y="60" width="10" height="10" as="geometry" />
        </mxCell>
        <mxCell id="wm6ZoheksM0Se62p-lOR-50" value="" style="group" vertex="1" connectable="0" parent="1">
          <mxGeometry x="220" y="80" width="30" height="70" as="geometry" />
        </mxCell>
        <mxCell id="wm6ZoheksM0Se62p-lOR-51" value="" style="rounded=1;whiteSpace=wrap;html=1;" vertex="1" parent="wm6ZoheksM0Se62p-lOR-50">
          <mxGeometry width="30" height="60" as="geometry" />
        </mxCell>
        <mxCell id="wm6ZoheksM0Se62p-lOR-52" value="" style="rounded=0;whiteSpace=wrap;html=1;" vertex="1" parent="wm6ZoheksM0Se62p-lOR-50">
          <mxGeometry y="60" width="10" height="10" as="geometry" />
        </mxCell>
        <mxCell id="wm6ZoheksM0Se62p-lOR-53" value="" style="rounded=0;whiteSpace=wrap;html=1;" vertex="1" parent="wm6ZoheksM0Se62p-lOR-50">
          <mxGeometry x="20" y="60" width="10" height="10" as="geometry" />
        </mxCell>
        <mxCell id="wm6ZoheksM0Se62p-lOR-54" value="" style="group" vertex="1" connectable="0" parent="1">
          <mxGeometry x="270" y="80" width="30" height="70" as="geometry" />
        </mxCell>
        <mxCell id="wm6ZoheksM0Se62p-lOR-55" value="" style="rounded=1;whiteSpace=wrap;html=1;" vertex="1" parent="wm6ZoheksM0Se62p-lOR-54">
          <mxGeometry width="30" height="60" as="geometry" />
        </mxCell>
        <mxCell id="wm6ZoheksM0Se62p-lOR-56" value="" style="rounded=0;whiteSpace=wrap;html=1;" vertex="1" parent="wm6ZoheksM0Se62p-lOR-54">
          <mxGeometry y="60" width="10" height="10" as="geometry" />
        </mxCell>
        <mxCell id="wm6ZoheksM0Se62p-lOR-57" value="" style="rounded=0;whiteSpace=wrap;html=1;" vertex="1" parent="wm6ZoheksM0Se62p-lOR-54">
          <mxGeometry x="20" y="60" width="10" height="10" as="geometry" />
        </mxCell>
        <mxCell id="wm6ZoheksM0Se62p-lOR-58" value="" style="group" vertex="1" connectable="0" parent="1">
          <mxGeometry x="298.5" y="80" width="30" height="70" as="geometry" />
        </mxCell>
        <mxCell id="wm6ZoheksM0Se62p-lOR-59" value="" style="rounded=1;whiteSpace=wrap;html=1;" vertex="1" parent="wm6ZoheksM0Se62p-lOR-58">
          <mxGeometry width="30" height="60" as="geometry" />
        </mxCell>
        <mxCell id="wm6ZoheksM0Se62p-lOR-60" value="" style="rounded=0;whiteSpace=wrap;html=1;" vertex="1" parent="wm6ZoheksM0Se62p-lOR-58">
          <mxGeometry y="60" width="10" height="10" as="geometry" />
        </mxCell>
        <mxCell id="wm6ZoheksM0Se62p-lOR-61" value="" style="rounded=0;whiteSpace=wrap;html=1;" vertex="1" parent="wm6ZoheksM0Se62p-lOR-58">
          <mxGeometry x="20" y="60" width="10" height="10" as="geometry" />
        </mxCell>
        <mxCell id="wm6ZoheksM0Se62p-lOR-62" value="" style="group" vertex="1" connectable="0" parent="1">
          <mxGeometry x="350" y="80" width="30" height="70" as="geometry" />
        </mxCell>
        <mxCell id="wm6ZoheksM0Se62p-lOR-63" value="&lt;font style=&quot;font-size: 8px&quot;&gt;Cargo&lt;/font&gt;" style="rounded=1;whiteSpace=wrap;html=1;" vertex="1" parent="wm6ZoheksM0Se62p-lOR-62">
          <mxGeometry width="30" height="60" as="geometry" />
        </mxCell>
        <mxCell id="wm6ZoheksM0Se62p-lOR-64" value="" style="rounded=0;whiteSpace=wrap;html=1;" vertex="1" parent="wm6ZoheksM0Se62p-lOR-62">
          <mxGeometry y="60" width="10" height="10" as="geometry" />
        </mxCell>
        <mxCell id="wm6ZoheksM0Se62p-lOR-65" value="" style="rounded=0;whiteSpace=wrap;html=1;" vertex="1" parent="wm6ZoheksM0Se62p-lOR-62">
          <mxGeometry x="20" y="60" width="10" height="10" as="geometry" />
        </mxCell>
        <mxCell id="wm6ZoheksM0Se62p-lOR-66" value="" style="group" vertex="1" connectable="0" parent="1">
          <mxGeometry x="378.5" y="80" width="30" height="70" as="geometry" />
        </mxCell>
        <mxCell id="wm6ZoheksM0Se62p-lOR-67" value="" style="rounded=1;whiteSpace=wrap;html=1;" vertex="1" parent="wm6ZoheksM0Se62p-lOR-66">
          <mxGeometry width="30" height="60" as="geometry" />
        </mxCell>
        <mxCell id="wm6ZoheksM0Se62p-lOR-68" value="" style="rounded=0;whiteSpace=wrap;html=1;" vertex="1" parent="wm6ZoheksM0Se62p-lOR-66">
          <mxGeometry y="60" width="10" height="10" as="geometry" />
        </mxCell>
        <mxCell id="wm6ZoheksM0Se62p-lOR-69" value="" style="rounded=0;whiteSpace=wrap;html=1;" vertex="1" parent="wm6ZoheksM0Se62p-lOR-66">
          <mxGeometry x="20" y="60" width="10" height="10" as="geometry" />
        </mxCell>
        <mxCell id="wm6ZoheksM0Se62p-lOR-78" value="" style="group" vertex="1" connectable="0" parent="1">
          <mxGeometry x="430" y="80" width="30" height="70" as="geometry" />
        </mxCell>
        <mxCell id="wm6ZoheksM0Se62p-lOR-79" value="" style="rounded=1;whiteSpace=wrap;html=1;" vertex="1" parent="wm6ZoheksM0Se62p-lOR-78">
          <mxGeometry width="30" height="60" as="geometry" />
        </mxCell>
        <mxCell id="wm6ZoheksM0Se62p-lOR-80" value="" style="rounded=0;whiteSpace=wrap;html=1;" vertex="1" parent="wm6ZoheksM0Se62p-lOR-78">
          <mxGeometry y="60" width="10" height="10" as="geometry" />
        </mxCell>
        <mxCell id="wm6ZoheksM0Se62p-lOR-81" value="" style="rounded=0;whiteSpace=wrap;html=1;" vertex="1" parent="wm6ZoheksM0Se62p-lOR-78">
          <mxGeometry x="20" y="60" width="10" height="10" as="geometry" />
        </mxCell>
        <mxCell id="wm6ZoheksM0Se62p-lOR-82" value="" style="group" vertex="1" connectable="0" parent="1">
          <mxGeometry x="458.5" y="80" width="30" height="70" as="geometry" />
        </mxCell>
        <mxCell id="wm6ZoheksM0Se62p-lOR-83" value="" style="rounded=1;whiteSpace=wrap;html=1;" vertex="1" parent="wm6ZoheksM0Se62p-lOR-82">
          <mxGeometry width="30" height="60" as="geometry" />
        </mxCell>
        <mxCell id="wm6ZoheksM0Se62p-lOR-84" value="" style="rounded=0;whiteSpace=wrap;html=1;" vertex="1" parent="wm6ZoheksM0Se62p-lOR-82">
          <mxGeometry y="60" width="10" height="10" as="geometry" />
        </mxCell>
        <mxCell id="wm6ZoheksM0Se62p-lOR-85" value="" style="rounded=0;whiteSpace=wrap;html=1;" vertex="1" parent="wm6ZoheksM0Se62p-lOR-82">
          <mxGeometry x="20" y="60" width="10" height="10" as="geometry" />
        </mxCell>
        <mxCell id="wm6ZoheksM0Se62p-lOR-86" value="" style="group" vertex="1" connectable="0" parent="1">
          <mxGeometry x="510" y="80" width="30" height="70" as="geometry" />
        </mxCell>
        <mxCell id="wm6ZoheksM0Se62p-lOR-87" value="" style="rounded=1;whiteSpace=wrap;html=1;" vertex="1" parent="wm6ZoheksM0Se62p-lOR-86">
          <mxGeometry width="30" height="60" as="geometry" />
        </mxCell>
        <mxCell id="wm6ZoheksM0Se62p-lOR-88" value="" style="rounded=0;whiteSpace=wrap;html=1;" vertex="1" parent="wm6ZoheksM0Se62p-lOR-86">
          <mxGeometry y="60" width="10" height="10" as="geometry" />
        </mxCell>
        <mxCell id="wm6ZoheksM0Se62p-lOR-89" value="" style="rounded=0;whiteSpace=wrap;html=1;" vertex="1" parent="wm6ZoheksM0Se62p-lOR-86">
          <mxGeometry x="20" y="60" width="10" height="10" as="geometry" />
        </mxCell>
        <mxCell id="wm6ZoheksM0Se62p-lOR-90" value="" style="group" vertex="1" connectable="0" parent="1">
          <mxGeometry x="538.5" y="80" width="30" height="70" as="geometry" />
        </mxCell>
        <mxCell id="wm6ZoheksM0Se62p-lOR-91" value="" style="rounded=1;whiteSpace=wrap;html=1;" vertex="1" parent="wm6ZoheksM0Se62p-lOR-90">
          <mxGeometry width="30" height="60" as="geometry" />
        </mxCell>
        <mxCell id="wm6ZoheksM0Se62p-lOR-92" value="" style="rounded=0;whiteSpace=wrap;html=1;" vertex="1" parent="wm6ZoheksM0Se62p-lOR-90">
          <mxGeometry y="60" width="10" height="10" as="geometry" />
        </mxCell>
        <mxCell id="wm6ZoheksM0Se62p-lOR-93" value="" style="rounded=0;whiteSpace=wrap;html=1;" vertex="1" parent="wm6ZoheksM0Se62p-lOR-90">
          <mxGeometry x="20" y="60" width="10" height="10" as="geometry" />
        </mxCell>
        <mxCell id="wm6ZoheksM0Se62p-lOR-94" value="" style="endArrow=classic;html=1;rounded=0;fillColor=#ffe6cc;strokeColor=#d79b00;endSize=3;" edge="1" parent="1">
          <mxGeometry width="50" height="50" relative="1" as="geometry">
            <mxPoint x="580.0000000000002" y="93.5" as="sourcePoint" />
            <mxPoint x="580.0000000000002" y="116.5" as="targetPoint" />
          </mxGeometry>
        </mxCell>
        <mxCell id="wm6ZoheksM0Se62p-lOR-95" value="" style="endArrow=classic;html=1;rounded=0;fillColor=#f8cecc;strokeColor=#b85450;endSize=3;" edge="1" parent="1">
          <mxGeometry width="50" height="50" relative="1" as="geometry">
            <mxPoint x="580.0000000000002" y="126" as="sourcePoint" />
            <mxPoint x="572" y="145" as="targetPoint" />
          </mxGeometry>
        </mxCell>
        <mxCell id="wm6ZoheksM0Se62p-lOR-96" value="" style="endArrow=classic;html=1;rounded=0;fillColor=#f8cecc;strokeColor=#b85450;endSize=3;" edge="1" parent="1">
          <mxGeometry width="50" height="50" relative="1" as="geometry">
            <mxPoint x="592.0000000000002" y="128" as="sourcePoint" />
            <mxPoint x="584" y="147" as="targetPoint" />
          </mxGeometry>
        </mxCell>
        <mxCell id="wm6ZoheksM0Se62p-lOR-97" value="" style="endArrow=classic;html=1;rounded=0;fillColor=#f8cecc;strokeColor=#b85450;endSize=3;" edge="1" parent="1">
          <mxGeometry width="50" height="50" relative="1" as="geometry">
            <mxPoint x="530" y="170" as="sourcePoint" />
            <mxPoint x="500" y="170" as="targetPoint" />
          </mxGeometry>
        </mxCell>
        <mxCell id="wm6ZoheksM0Se62p-lOR-98" value="" style="endArrow=classic;html=1;rounded=0;fillColor=#f8cecc;strokeColor=#b85450;endSize=3;" edge="1" parent="1">
          <mxGeometry width="50" height="50" relative="1" as="geometry">
            <mxPoint x="558.0000000000002" y="145" as="sourcePoint" />
            <mxPoint x="528.0000000000002" y="145" as="targetPoint" />
          </mxGeometry>
        </mxCell>
        <mxCell id="wm6ZoheksM0Se62p-lOR-99" value="" style="endArrow=classic;html=1;rounded=0;fillColor=#f8cecc;strokeColor=#b85450;endSize=3;" edge="1" parent="1">
          <mxGeometry width="50" height="50" relative="1" as="geometry">
            <mxPoint x="491" y="145" as="sourcePoint" />
            <mxPoint x="468.0000000000002" y="145" as="targetPoint" />
          </mxGeometry>
        </mxCell>
        <mxCell id="wm6ZoheksM0Se62p-lOR-100" value="" style="endArrow=classic;html=1;rounded=0;fillColor=#f8cecc;strokeColor=#b85450;endSize=3;" edge="1" parent="1">
          <mxGeometry width="50" height="50" relative="1" as="geometry">
            <mxPoint x="412" y="145" as="sourcePoint" />
            <mxPoint x="388.0000000000002" y="145" as="targetPoint" />
          </mxGeometry>
        </mxCell>
        <mxCell id="wm6ZoheksM0Se62p-lOR-101" value="" style="endArrow=classic;html=1;rounded=0;fillColor=#f8cecc;strokeColor=#b85450;endSize=3;" edge="1" parent="1">
          <mxGeometry width="50" height="50" relative="1" as="geometry">
            <mxPoint x="331.0000000000002" y="145" as="sourcePoint" />
            <mxPoint x="301.0000000000002" y="145" as="targetPoint" />
          </mxGeometry>
        </mxCell>
        <mxCell id="wm6ZoheksM0Se62p-lOR-102" value="" style="endArrow=classic;html=1;rounded=0;fillColor=#f8cecc;strokeColor=#b85450;endSize=3;" edge="1" parent="1">
          <mxGeometry width="50" height="50" relative="1" as="geometry">
            <mxPoint x="254.00000000000023" y="145" as="sourcePoint" />
            <mxPoint x="224.00000000000023" y="145" as="targetPoint" />
          </mxGeometry>
        </mxCell>
        <mxCell id="wm6ZoheksM0Se62p-lOR-103" value="" style="endArrow=classic;html=1;rounded=0;fillColor=#f8cecc;strokeColor=#b85450;endSize=3;" edge="1" parent="1">
          <mxGeometry width="50" height="50" relative="1" as="geometry">
            <mxPoint x="196.00000000000023" y="145" as="sourcePoint" />
            <mxPoint x="174" y="143" as="targetPoint" />
          </mxGeometry>
        </mxCell>
        <mxCell id="wm6ZoheksM0Se62p-lOR-105" value="" style="endArrow=classic;html=1;rounded=0;fillColor=#f8cecc;strokeColor=#b85450;endSize=3;" edge="1" parent="1">
          <mxGeometry width="50" height="50" relative="1" as="geometry">
            <mxPoint x="501.0000000000002" y="126" as="sourcePoint" />
            <mxPoint x="493" y="145" as="targetPoint" />
          </mxGeometry>
        </mxCell>
        <mxCell id="wm6ZoheksM0Se62p-lOR-106" value="" style="endArrow=classic;html=1;rounded=0;fillColor=#f8cecc;strokeColor=#b85450;endSize=3;" edge="1" parent="1">
          <mxGeometry width="50" height="50" relative="1" as="geometry">
            <mxPoint x="421.0000000000002" y="123" as="sourcePoint" />
            <mxPoint x="413" y="142" as="targetPoint" />
          </mxGeometry>
        </mxCell>
        <mxCell id="wm6ZoheksM0Se62p-lOR-107" value="" style="endArrow=classic;html=1;rounded=0;fillColor=#f8cecc;strokeColor=#b85450;endSize=3;" edge="1" parent="1">
          <mxGeometry width="50" height="50" relative="1" as="geometry">
            <mxPoint x="341.0000000000002" y="124" as="sourcePoint" />
            <mxPoint x="333" y="143" as="targetPoint" />
          </mxGeometry>
        </mxCell>
        <mxCell id="wm6ZoheksM0Se62p-lOR-108" value="" style="endArrow=classic;html=1;rounded=0;fillColor=#f8cecc;strokeColor=#b85450;endSize=3;" edge="1" parent="1">
          <mxGeometry width="50" height="50" relative="1" as="geometry">
            <mxPoint x="261.0000000000002" y="123" as="sourcePoint" />
            <mxPoint x="253" y="142" as="targetPoint" />
          </mxGeometry>
        </mxCell>
      </root>
    </mxGraphModel>
  </diagram>
</mxfile>
